# xmcd
# Track frame offsets:
# 150
# 21859
# 36480
# 54777
# 72343
# 103196
# 117006
# 133122
# 151504
# 168649
# 195157
# 208027
#
# Disc length: 3003 seconds
# Revision: 0
# Processed by: cddbd v1.5.2PL0 Copyright (c) Steve Scherf et al.
# Submitted via: VisiTrax 2.11.1.266 - For more info visit www.synapsa.com
#
DISCID=9d0bb90c
DTITLE=Atomic Rooster - Atomic Rooster
DYEAR=1980
DGENRE=progressive rock
TTITLE0=They took control of you
TTITLE1=She`s my women
TTITLE2=He did it again
TTITLE3=Where`s the show ?
TTITLE4=In the shadows
TTITLE5=Do you know who`s looking for you ?
TTITLE6=Don`t lose your mind
TTITLE7=Watch out !
TTITLE8=I can`t stand it
TTITLE9=Lost in space
TTITLE10=Throw you're life away
TTITLE11=Broken windows
EXTD=GB
EXTT0=
EXTT1=
EXTT2=
EXTT3=
EXTT4=
EXTT5=
EXTT6=
EXTT7=
EXTT8=
EXTT9=
EXTT10=
EXTT11=
PLAYORDER=
